<svg width="48" height="31" viewBox="0 0 48 31" fill="none" xmlns="http://www.w3.org/2000/svg">
<rect width="48" height="31" rx="4" fill="white"/>
<g clip-path="url(#clip0_1094_3269)">
<path d="M15.2656 27.5658C21.7468 27.5658 27.0009 22.3217 27.0009 15.8527C27.0009 9.38376 21.7468 4.13965 15.2656 4.13965C8.78434 4.13965 3.53027 9.38376 3.53027 15.8527C3.53027 22.3217 8.78434 27.5658 15.2656 27.5658Z" fill="#EA001B"/>
<path d="M32.0302 27.5658C38.5114 27.5658 43.7655 22.3217 43.7655 15.8527C43.7655 9.38376 38.5114 4.13965 32.0302 4.13965C25.549 4.13965 20.2949 9.38376 20.2949 15.8527C20.2949 22.3217 25.549 27.5658 32.0302 27.5658Z" fill="#FFA200" fill-opacity="0.8"/>
</g>
<defs>
<clipPath id="clip0_1094_3269">
<rect width="40.2353" height="23.25" fill="white" transform="translate(3.53027 4.22754)"/>
</clipPath>
</defs>
</svg>
