<svg width="48" height="31" viewBox="0 0 48 31" fill="none" xmlns="http://www.w3.org/2000/svg">
<rect width="48" height="31" rx="4" fill="white"/>
<g clip-path="url(#clip0_1094_3275)">
<path d="M24.3609 14.1263C24.3371 15.9836 26.0305 17.02 27.306 17.6363C28.6166 18.2685 29.0568 18.674 29.0516 19.2394C29.0419 20.1047 28.0062 20.4866 27.0371 20.5014C25.3464 20.5274 24.3633 20.0489 23.5818 19.687L22.9727 22.5125C23.7568 22.8707 25.2088 23.1831 26.7144 23.1968C30.2486 23.1968 32.5608 21.4672 32.5734 18.7856C32.5872 15.3822 27.825 15.1938 27.8575 13.6726C27.8688 13.2114 28.3127 12.7191 29.2856 12.594C29.7671 12.5308 31.0964 12.4824 32.6035 13.1704L33.195 10.4367C32.3845 10.1441 31.3428 9.86397 30.0459 9.86397C26.7194 9.86397 24.3797 11.6171 24.3609 14.1263ZM38.8787 10.0994C38.2334 10.0994 37.6895 10.4726 37.4468 11.0454L32.3983 22.996H35.93L36.6328 21.0704H40.9484L41.3561 22.996H44.4688L41.7525 10.0994H38.8787ZM39.3728 13.5833L40.392 18.4261H37.6007L39.3728 13.5833ZM20.0789 10.0996L17.2951 22.9958H20.6605L23.443 10.0993H20.0789V10.0996ZM15.1004 10.0993L11.5975 18.8773L10.1805 11.4137C10.0143 10.5805 9.35768 10.0994 8.62854 10.0994H2.90247L2.82227 10.4739C3.9978 10.7268 5.33342 11.1347 6.1426 11.5711C6.63781 11.8377 6.77901 12.0708 6.9417 12.7043L9.62546 22.996H13.1818L18.6343 10.0994H15.1004" fill="url(#paint0_linear_1094_3275)"/>
</g>
<defs>
<linearGradient id="paint0_linear_1094_3275" x1="21.9689" y1="23.4642" x2="22.3515" y2="9.77106" gradientUnits="userSpaceOnUse">
<stop stop-color="#222357"/>
<stop offset="1" stop-color="#254AA5"/>
</linearGradient>
<clipPath id="clip0_1094_3275">
<rect width="41.6471" height="13.3864" fill="white" transform="translate(2.82227 9.86377)"/>
</clipPath>
</defs>
</svg>
